#!OML:ASF H:\ManfredObstacles\Project 1\Capture day 2\Session 1\male.ASF
:FULLY-SPECIFIED
:DEGREES
440
root 3.54248 8.89049 -6.90127 -119.74 -9.5312 -203.657
lowerback 29.8409 -3.75874 -2.16738
upperback 6.55672 -7.35182 -4.9062
thorax -9.38711 -3.92222 -1.49057
lowerneck -26.9346 -1.36418 7.83388
upperneck 17.3069 -5.83438 3.55505
head 9.83664 -1.74019 -0.911852
rclavicle 4.29375e-014 -5.1684e-014
rhumerus 38.8043 -6.77373 -84.7897
rradius 36.239
rwrist 37.5756
rhand -52.1452 -16.1904
rfingers 7.12502
rthumb -24.6467 -44.6233
lclavicle 4.29375e-014 -5.1684e-014
lhumerus 33.2465 -16.556 57.5548
lradius 28.1472
lwrist -46.8751
lhand -43.0169 18.126
lfingers 7.12502
lthumb -15.8746 47.4953
rfemur -54.8031 -3.80302 19.6955
rtibia 110.028
rfoot -27.7568 -22.7466
rtoes -40.7289
lfemur -75.9002 5.38327 -12.4702
ltibia 126.808
lfoot -4.94587 18.5247
ltoes -11.1043
441
root 3.57445 8.89504 -6.92305 -120.203 -9.5418 -203.82
lowerback 29.9785 -3.64506 -2.22892
upperback 6.81396 -7.28233 -5.02388
thorax -9.16797 -3.91258 -1.61337
lowerneck -26.9747 -1.44754 7.8194
upperneck 17.3107 -5.9618 3.62088
head 9.84546 -1.79012 -0.906558
rclavicle 3.81667e-014 8.70677e-014
rhumerus 39.0625 -7.08766 -85.0866
rradius 35.6245
rwrist 37.7173
rhand -52.4342 -16.299
rfingers 7.12502
rthumb -24.9237 -44.6939
lclavicle 3.81667e-014 8.70677e-014
lhumerus 33.5759 -16.8957 57.1211
lradius 28.2516
lwrist -46.7046
lhand -42.2538 17.083
lfingers 7.12502
lthumb -15.1397 46.5092
rfemur -54.0148 -3.75198 19.7482
rtibia 109.647
rfoot -27.7939 -22.762
rtoes -40.6143
lfemur -77.5417 6.00766 -12.4401
ltibia 128.208
lfoot -5.66235 19.2052
ltoes -11.1773
442
root 3.60356 8.89996 -6.94465 -120.724 -9.55102 -203.958
lowerback 30.1654 -3.52225 -2.28217
upperback 7.08029 -7.20291 -5.1324
thorax -8.9612 -3.89878 -1.73151
lowerneck -27.0137 -1.52871 7.78433
upperneck 17.3136 -6.07662 3.68204
head 9.85436 -1.8361 -0.897747
rclavicle 7.31528e-014 8.26944e-014
rhumerus 39.3252 -7.39479 -85.3549
rradius 35.0289
rwrist 37.8636
rhand -52.6844 -16.4449
rfingers 7.12502
rthumb -25.1634 -44.8063
lclavicle 7.31528e-014 8.26944e-014
lhumerus 33.8845 -17.2831 56.6548
lradius 28.4465
lwrist -46.4808
lhand -41.5822 16.2368
lfingers 7.12502
lthumb -14.4927 45.7106
rfemur -53.1688 -3.68814 19.7893
rtibia 109.269
rfoot -27.8306 -22.7755
rtoes -40.5063
lfemur -79.1828 6.67027 -12.454
ltibia 129.553
lfoot -6.39027 19.8785
ltoes -11.2273
443
root 3.62932 8.90469 -6.96477 -121.29 -9.56567 -204.067
lowerback 30.3899 -3.38894 -2.32431
upperback 7.35075 -7.10835 -5.22425
thorax -8.76555 -3.87788 -1.84096
lowerneck -27.0098 -1.6043 7.74513
upperneck 17.2828 -6.17075 3.7286
head 9.84366 -1.87714 -0.889315
rclavicle 1.11319e-014 1.15295e-014
rhumerus 39.5788 -7.69728 -85.5772
rradius 34.4616
rwrist 37.9978
rhand -52.9103 -16.6109
rfingers 7.12502
rthumb -25.3798 -44.9418
lclavicle 1.11319e-014 1.15295e-014
lhumerus 34.1816 -17.7421 56.1377
lradius 28.7486
lwrist -46.1006
lhand -40.9877 15.5559
lfingers 7.12502
lthumb -13.9198 45.07
rfemur -52.2859 -3.61522 19.8252
rtibia 108.904
rfoot -27.8814 -22.7759
rtoes -40.4006
lfemur -80.8617 7.37159 -12.5139
ltibia 130.856
lfoot -7.12168 20.5177
ltoes -11.2827
444
root 3.65154 8.90962 -6.98425 -121.931 -9.57943 -204.142
lowerback 30.6785 -3.23895 -2.36005
upperback 7.64222 -6.99761 -5.30337
thorax -8.57398 -3.85085 -1.94301
lowerneck -27.0171 -1.67409 7.70475
upperneck 17.2472 -6.25621 3.77106
head 9.83317 -1.91482 -0.88086
rclavicle -1.11319e-014 7.7526e-015
rhumerus 39.8466 -8.01468 -85.7957
rradius 33.9255
rwrist 38.1515
rhand -53.1089 -16.7919
rfingers 7.12502
rthumb -25.5701 -45.0956
lclavicle -1.11319e-014 7.7526e-015
lhumerus 34.4611 -18.2077 55.6276
lradius 29.1503
lwrist -45.6667
lhand -40.4701 15.0401
lfingers 7.12502
lthumb -13.4209 44.5878
rfemur -51.3231 -3.52603 19.8528
rtibia 108.542
rfoot -27.9377 -22.7558
rtoes -40.296
lfemur -82.5325 8.10926 -12.63
ltibia 132.105
lfoot -7.856 21.1215
ltoes -11.3257
445
root 3.66988 8.91412 -7.00215 -122.628 -9.5867 -204.18
lowerback 31.0055 -3.0664 -2.34803
upperback 7.96474 -6.85333 -5.39558
thorax -8.3693 -3.8113 -2.09902
lowerneck -27.0659 -1.7529 7.68543
upperneck 17.1825 -6.36885 3.83246
head 9.81925 -1.96219 -0.873374
rclavicle 2.54444e-014 5.32743e-014
rhumerus 40.1459 -8.43072 -86.0472
rradius 33.4118
rwrist 38.3316
rhand -53.2874 -16.9555
rfingers 7.12502
rthumb -25.7411 -45.2345
lclavicle 2.54444e-014 5.32743e-014
lhumerus 34.7842 -18.7146 55.0884
lradius 29.6627
lwrist -45.1493
lhand -40.0108 14.6531
lfingers 7.12502
lthumb -12.9782 44.2295
rfemur -50.3107 -3.41907 19.8725
rtibia 108.193
rfoot -27.9886 -22.7319
rtoes -40.197
lfemur -84.2287 8.88431 -12.8179
ltibia 133.311
lfoot -8.58972 21.6953
ltoes -11.3432
446
root 3.68399 8.91809 -7.01849 -123.363 -9.58131 -204.18
lowerback 31.3392 -2.88357 -2.32764
upperback 8.31133 -6.69791 -5.47616
thorax -8.13696 -3.76852 -2.2525
lowerneck -27.1437 -1.81885 7.66904
upperneck 17.1198 -6.46386 3.87679
head 9.81038 -2.00265 -0.869981
rclavicle 1.43125e-014 1.35174e-014
rhumerus 40.4929 -8.85266 -86.3135
rradius 32.9061
rwrist 38.534
rhand -53.4435 -17.1043
rfingers 7.12502
rthumb -25.8905 -45.3616
lclavicle 1.43125e-014 1.35174e-014
lhumerus 35.0854 -19.1256 54.6227
lradius 30.2518
lwrist -44.6276
lhand -39.5826 14.3052
lfingers 7.12502
lthumb -12.5654 43.9074
rfemur -49.2763 -3.29336 19.8826
rtibia 107.866
rfoot -28.0387 -22.7051
rtoes -40.16
lfemur -85.9758 9.68177 -13.0995
ltibia 134.473
lfoot -9.30592 22.2587
ltoes -11.3765
447
root 3.69403 8.92181 -7.03384 -124.163 -9.5488 -204.13
lowerback 31.7113 -2.68397 -2.30209
upperback 8.67984 -6.52905 -5.55341
thorax -7.89463 -3.72161 -2.40998
lowerneck -27.2262 -1.87682 7.64387
upperneck 17.0371 -6.544 3.92336
head 9.79577 -2.03767 -0.861971
rclavicle 5.08889e-014 3.99557e-014
rhumerus 40.8802 -9.27998 -86.6071
rradius 32.3969
rwrist 38.7559
rhand -53.5824 -17.2358
rfingers 7.12502
rthumb -26.0235 -45.4736
lclavicle 5.08889e-014 3.99557e-014
lhumerus 35.353 -19.4293 54.2381
lradius 30.8993
lwrist -44.1448
lhand -39.2205 13.9681
lfingers 7.12502
lthumb -12.2163 43.5914
rfemur -48.1888 -3.13044 19.8838
rtibia 107.554
rfoot -28.0584 -22.6865
rtoes -40.1167
lfemur -87.7155 10.5037 -13.4774
ltibia 135.582
lfoot -10.0263 22.849
ltoes -11.4429
448
root 3.69993 8.92514 -7.04762 -125.003 -9.49403 -204.033
lowerback 32.0933 -2.47445 -2.27836
upperback 9.06282 -6.35332 -5.61571
thorax -7.63507 -3.67299 -2.55354
lowerneck -27.3035 -1.91888 7.63048
upperneck 16.9499 -6.59409 3.92447
head 9.7765 -2.06384 -0.866902
rclavicle -1.74931e-014 4.41302e-014
rhumerus 41.3091 -9.67192 -86.9013
rradius 31.8772
rwrist 38.9754
rhand -53.6993 -17.3775
rfingers 7.12502
rthumb -26.1355 -45.5988
lclavicle -1.74931e-014 4.41302e-014
lhumerus 35.566 -19.6051 53.9663
lradius 31.5906
lwrist -43.6571
lhand -38.9133 13.6001
lfingers 7.12502
lthumb -11.9201 43.2408
rfemur -47.0833 -2.93894 19.8864
rtibia 107.263
rfoot -28.0144 -22.6847
rtoes -40.0398
lfemur -89.491 11.3266 -13.9601
ltibia 136.637
lfoot -10.7127 23.4699
ltoes -11.5166
449
root 3.70155 8.92821 -7.05975 -125.881 -9.42189 -203.888
lowerback 32.799 -2.24987 -2.30836
upperback 9.06569 -6.18676 -5.7411
thorax -7.27551 -3.60236 -2.52331
lowerneck -27.3477 -1.93872 7.63012
upperneck 16.8634 -6.60333 3.87747
head 9.74983 -2.07676 -0.88393
rclavicle -4.6118e-014 1.17283e-014
rhumerus 41.772 -10.0073 -87.1964
rradius 31.351
rwrist 39.1768
rhand -53.7828 -17.5177
rfingers 7.12502
rthumb -26.2154 -45.7272
lclavicle -4.6118e-014 1.17283e-014
lhumerus 35.7134 -19.6607 53.7839
lradius 32.3148
lwrist -43.1701
lhand -38.6456 13.2235
lfingers 7.12502
lthumb -11.6619 42.879
rfemur -45.9595 -2.71028 19.9008
rtibia 106.989
rfoot -27.9003 -22.7469
rtoes -39.993
lfemur -91.3084 12.1209 -14.5433
ltibia 137.631
lfoot -11.3551 24.12
ltoes -11.607
450
root 3.69969 8.93126 -7.07083 -126.812 -9.32857 -203.695
lowerback 33.2471 -2.02639 -2.28778
upperback 9.45771 -6.00797 -5.77716
thorax -7.01769 -3.55498 -2.62987
lowerneck -27.3838 -1.9498 7.6314
upperneck 16.7839 -6.59293 3.7991
head 9.72303 -2.08399 -0.909096
rclavicle -2.06736e-014 1.51076e-014
rhumerus 42.259 -10.304 -87.4845
rradius 30.8254
rwrist 39.3794
rhand -53.8482 -17.6768
rfingers 7.12502
rthumb -26.278 -45.8769
lclavicle -2.06736e-014 1.51076e-014
lhumerus 35.8186 -19.6288 53.681
lradius 33.0598
lwrist -42.6857
lhand -38.4437 12.909
lfingers 7.12502
lthumb -11.4672 42.5754
rfemur -44.7928 -2.43773 19.9315
rtibia 106.723
rfoot -27.7479 -22.8361
rtoes -39.9653
lfemur -93.1316 12.8557 -15.2167
ltibia 138.55
lfoot -11.9253 24.804
ltoes -11.7009
451
root 3.69475 8.9336 -7.08002 -127.798 -9.21984 -203.455
lowerback 33.7387 -1.79227 -2.25845
upperback 9.86462 -5.82481 -5.80778
thorax -6.75688 -3.50801 -2.7365
lowerneck -27.3965 -1.95309 7.64745
upperneck 16.6931 -6.56981 3.70204
head 9.68715 -2.08774 -0.940625
rclavicle 3.49861e-014 2.84262e-014
rhumerus 42.7701 -10.5636 -87.7578
rradius 30.3067
rwrist 39.5573
rhand -53.9042 -17.8267
rfingers 7.12502
rthumb -26.3316 -46.0188
lclavicle 3.49861e-014 2.84262e-014
lhumerus 35.9126 -19.5403 53.6056
lradius 33.8287
lwrist -42.1587
lhand -38.2782 12.6705
lfingers 7.12502
lthumb -11.3076 42.3457
rfemur -43.5749 -2.11953 19.9884
rtibia 106.463
rfoot -27.5706 -22.9802
rtoes -39.974
lfemur -94.9722 13.5015 -15.9615
ltibia 139.391
lfoot -12.4253 25.5026
ltoes -11.792
452
root 3.68678 8.93489 -7.08768 -128.844 -9.09537 -203.163
lowerback 34.2739 -1.53389 -2.24384
upperback 10.2868 -5.62654 -5.81308
thorax -6.48681 -3.45698 -2.8144
lowerneck -27.4006 -1.95766 7.65328
upperneck 16.6186 -6.54262 3.59586
head 9.65567 -2.09048 -0.973203
rclavicle 6.67916e-014 -1.17482e-013
rhumerus 43.2964 -10.775 -87.9753
rradius 29.807
rwrist 39.7187
rhand -53.9585 -17.9835
rfingers 7.12502
rthumb -26.3836 -46.1678
lclavicle 6.67916e-014 -1.17482e-013
lhumerus 35.9993 -19.3807 53.593
lradius 34.5973
lwrist -41.67
lhand -38.1623 12.5224
lfingers 7.12502
lthumb -11.1958 42.2037
rfemur -42.3001 -1.75448 20.0754
rtibia 106.204
rfoot -27.4024 -23.1467
rtoes -39.986
lfemur -96.8181 14.0252 -16.7572
ltibia 140.142
lfoot -12.8441 26.2056
ltoes -11.8585
453
root 3.67635 8.93523 -7.09377 -129.946 -8.95384 -202.832
lowerback 34.8643 -1.26214 -2.1917
upperback 10.7377 -5.41935 -5.83873
thorax -6.20661 -3.4053 -2.93667
lowerneck -27.4917 -1.97034 7.66756
upperneck 16.5697 -6.55177 3.52949
head 9.64909 -2.10186 -1.0003
rclavicle -4.77083e-015 3.8763e-014
rhumerus 43.8405 -11.0075 -88.2059
rradius 29.3438
rwrist 39.8893
rhand -54.0236 -18.1348
rfingers 7.12502
rthumb -26.4459 -46.3098
lclavicle -4.77083e-015 3.8763e-014
lhumerus 36.1405 -19.1886 53.559
lradius 35.3583
lwrist -41.3086
lhand -38.1511 12.5107
lfingers 7.12502
lthumb -11.185 42.1925
rfemur -40.9697 -1.35892 20.1882
rtibia 105.943
rfoot -27.2422 -23.3473
rtoes -39.9889
lfemur -98.6587 14.3652 -17.5777
ltibia 140.787
lfoot -13.1618 26.9129
ltoes -11.9333
454
root 3.66365 8.93505 -7.09885 -131.061 -8.80984 -202.475
lowerback 35.4568 -0.986112 -2.13916
upperback 11.1965 -5.21388 -5.84272
thorax -5.91092 -3.35671 -3.03795
lowerneck -27.616 -1.98279 7.66245
upperneck 16.5674 -6.5614 3.46698
head 9.66556 -2.11102 -1.02426
rclavicle -6.04305e-014 -6.2816e-014
rhumerus 44.3782 -11.1656 -88.3446
rradius 28.9221
rwrist 40.0077
rhand -54.0923 -18.2921
rfingers 7.12502
rthumb -26.5116 -46.4572
lclavicle -6.04305e-014 -6.2816e-014
lhumerus 36.2756 -18.9092 53.603
lradius 36.083
lwrist -41.0904
lhand -38.2249 12.5402
lfingers 7.12502
lthumb -11.2562 42.2182
rfemur -39.6309 -0.962776 20.3323
rtibia 105.68
rfoot -27.0944 -23.5816
rtoes -40.0302
lfemur -100.536 14.4122 -18.3825
ltibia 141.306
lfoot -13.3115 27.6004
ltoes -11.9921
